<svg width="92" height="72" viewBox="0 0 92 72" fill="none" xmlns="http://www.w3.org/2000/svg">
<path d="M75.5477 53.4292C78.5962 52.8031 81.1046 51.3121 81.1046 47.6659V29.6668V11.6678C81.1046 8.79651 78.6123 6.88522 72.6423 7.93514L45.43 12.7142L18.2223 7.93514C12.2708 6.8143 9.75769 8.79651 9.75769 11.6678V47.6659C9.75769 51.3121 12.2661 52.8031 15.3146 53.4292L45.43 59.6111L75.5477 53.4292ZM81.1023 14.2364L84.9723 13.8662C87.4993 13.6241 91 15.48 91 17.3913V55.1156C91 57.9904 88.7777 58.8621 84.1347 59.3897L46 63.617L7.86539 59.3897C3.22231 58.8621 1 57.9904 1 55.1156V17.3913C1 15.48 4.50077 13.6223 7.0277 13.8662L9.7623 14.1274" fill="#FDFEFF"/>
<path d="M75.5477 53.5437C78.5962 52.9175 81.1046 51.4265 81.1046 47.7804V29.7813V11.7822C81.1046 8.91098 78.6123 6.99968 72.6423 8.0496L45.43 12.8287L18.2223 8.0496C12.2708 6.92877 9.7577 8.91098 9.7577 11.7822V47.7804C9.7577 51.4265 12.2662 52.9175 15.3146 53.5437L45.43 59.7256L75.5477 53.5437Z" fill="#FDFEFF"/>
<path d="M81.1023 14.2364L84.9723 13.8662C87.4993 13.6241 91 15.48 91 17.3913V55.1156C91 57.9904 88.7777 58.8621 84.1347 59.3897L46 63.617L7.86539 59.3897C3.22231 58.8621 1 57.9904 1 55.1156V17.3913C1 15.48 4.50077 13.6223 7.0277 13.8662L9.7623 14.1274M75.5477 53.4292C78.5962 52.8031 81.1046 51.3121 81.1046 47.6659V29.6668V11.6678C81.1046 8.79651 78.6123 6.88522 72.6423 7.93514L45.43 12.7142L18.2223 7.93514C12.2708 6.8143 9.75769 8.79651 9.75769 11.6678V47.6659C9.75769 51.3121 12.2661 52.8031 15.3146 53.4292L45.43 59.6111L75.5477 53.4292ZM75.5477 53.5437C78.5962 52.9175 81.1046 51.4265 81.1046 47.7804V29.7813V11.7822C81.1046 8.91098 78.6123 6.99968 72.6423 8.0496L45.43 12.8287L18.2223 8.0496C12.2708 6.92877 9.7577 8.91098 9.7577 11.7822V47.7804C9.7577 51.4265 12.2662 52.9175 15.3146 53.5437L45.43 59.7256L75.5477 53.5437Z" stroke="#624F82" stroke-linecap="round" stroke-linejoin="round"/>
<g filter="url(#filter0_d_8_33)">
<path d="M74.9048 53.4292C77.9532 52.8031 80.4617 51.3121 80.4617 47.6659V29.6669V11.6678C80.4617 8.79657 77.9694 6.88528 71.9994 7.9352L44.7871 12.7143L17.5794 7.9352C11.6278 6.81436 9.11475 8.79657 9.11475 11.6678V47.6659C9.11475 51.3121 11.6232 52.8031 14.6717 53.4292L44.7871 59.6111L74.9048 53.4292Z" fill="#624F82"/>
<path d="M74.9048 53.5437C77.9532 52.9175 80.4617 51.4266 80.4617 47.7804V29.7814V11.7823C80.4617 8.91104 77.9694 6.99974 71.9994 8.04966L44.7871 12.8288L17.5794 8.04966C11.6279 6.92883 9.11476 8.91104 9.11476 11.7823V47.7804C9.11476 51.4266 11.6232 52.9175 14.6717 53.5437L44.7871 59.7256L74.9048 53.5437Z" fill="#FDFEFF"/>
<path d="M74.9048 53.4292C77.9532 52.8031 80.4617 51.3121 80.4617 47.6659V29.6669V11.6678C80.4617 8.79657 77.9694 6.88528 71.9994 7.9352L44.7871 12.7143L17.5794 7.9352C11.6278 6.81436 9.11475 8.79657 9.11475 11.6678V47.6659C9.11475 51.3121 11.6232 52.8031 14.6717 53.4292L44.7871 59.6111L74.9048 53.4292Z" stroke="#624F82" stroke-width="0.5" stroke-linecap="round" stroke-linejoin="round"/>
<path d="M74.9048 53.5437C77.9532 52.9175 80.4617 51.4266 80.4617 47.7804V29.7814V11.7823C80.4617 8.91104 77.9694 6.99974 71.9994 8.04966L44.7871 12.8288L17.5794 8.04966C11.6279 6.92883 9.11476 8.91104 9.11476 11.7823V47.7804C9.11476 51.4266 11.6232 52.9175 14.6717 53.5437L44.7871 59.7256L74.9048 53.5437Z" stroke="#624F82" stroke-width="0.5" stroke-linecap="round" stroke-linejoin="round"/>
</g>
<mask id="mask0_8_33" style="mask-type:alpha" maskUnits="userSpaceOnUse" x="46" y="11" width="28" height="50">
<rect x="46" y="11.1917" width="27.2951" height="48.8511" fill="#D9D9D9"/>
</mask>
<g mask="url(#mask0_8_33)">
<g filter="url(#filter1_i_8_33)">
<path d="M42.8298 24.8764C42.8298 24.5782 42.9369 24.2635 43.1375 23.9721C43.3382 23.6807 43.6234 23.4258 43.957 23.2394C44.2907 23.0531 44.6578 22.9438 45.012 22.9254C45.3662 22.9069 45.6916 22.9801 45.9469 23.1357C46.2023 23.2913 46.3762 23.5223 46.4466 23.7996C46.5171 24.0768 46.4809 24.3878 46.3427 24.6932C46.2045 24.9986 45.9705 25.2848 45.6702 25.5154C45.3699 25.7461 45.0169 25.9109 44.6558 25.989C44.1715 26.0938 43.7071 26.0355 43.3646 25.8268C43.0222 25.6181 42.8298 25.2763 42.8298 24.8764ZM48.3077 35.7533C48.3077 36.0515 48.4148 36.3199 48.6154 36.5244C48.8161 36.729 49.1012 36.8605 49.4349 36.9024C49.7685 36.9444 50.1357 36.8948 50.4899 36.76C50.8441 36.6251 51.1694 36.4111 51.4248 36.145C51.6802 35.8789 51.8541 35.5726 51.9245 35.2649C51.995 34.9571 51.9588 34.6618 51.8206 34.4162C51.6824 34.1706 51.4484 33.9857 51.1481 33.885C50.8478 33.7843 50.4948 33.7723 50.1336 33.8504C49.6494 33.9552 49.1849 34.2146 48.8425 34.5714C48.5001 34.9283 48.3077 35.3534 48.3077 35.7533ZM59.3776 40.0431C61.6881 37.9409 63.5335 35.5315 64.7779 32.9925C66.0222 30.4536 66.6337 27.8498 66.5673 25.3734C66.5673 25.2352 66.5604 25.0991 66.5467 24.9651C66.5322 24.7765 66.4296 24.6189 66.2599 24.5242C66.0903 24.4296 65.8663 24.4051 65.6337 24.4558L60.1193 25.6491L54.84 32.0216C55.4995 32.7966 55.7448 33.8242 55.5326 34.9227C55.3204 36.0212 54.6644 37.1199 53.6805 38.0246C52.6966 38.9293 51.4483 39.5818 50.156 39.8667C48.8638 40.1515 47.6109 40.0505 46.6188 39.5814C45.6268 39.1123 44.9594 38.3053 44.7347 37.3031C44.5099 36.3009 44.7423 35.168 45.3908 34.1047C46.0392 33.0414 47.0619 32.1161 48.2782 31.4924C49.4944 30.8686 50.8259 30.5866 52.0372 30.6962L57.8597 23.6653C58.0323 23.4597 58.2474 23.2782 58.4899 23.1336C58.7324 22.9889 58.9965 22.8847 59.2634 22.8281L64.545 21.6853C64.6915 21.6537 64.8359 21.5935 64.966 21.5097C65.096 21.426 65.208 21.3211 65.2924 21.2039C65.3768 21.0868 65.4311 20.9608 65.4508 20.8367C65.4705 20.7126 65.4549 20.5939 65.4055 20.4908C62.7487 14.912 55.8078 11.8905 47.5636 13.3126L47.4289 13.3417C47.3062 13.3645 47.1838 13.4077 47.069 13.4687C46.9543 13.5297 46.8496 13.6073 46.7611 13.6968C46.6727 13.7863 46.6024 13.8859 46.5544 13.9897C46.5063 14.0934 46.4816 14.1992 46.4817 14.3006V19.8134C47.7 19.9055 48.7268 20.3832 49.3807 21.1621C50.0345 21.941 50.2733 22.9709 50.0548 24.0699C49.8362 25.1688 49.1745 26.266 48.1866 27.1676C47.1986 28.0691 45.948 28.717 44.6558 28.9966C43.3636 29.2762 42.113 29.1696 41.125 28.6956C40.137 28.2216 39.4753 27.4108 39.2568 26.4064C39.0383 25.402 39.277 24.2687 39.9309 23.2069C40.5847 22.145 41.6115 21.223 42.8298 20.6037V15.5149C42.8302 15.4014 42.7995 15.296 42.7402 15.2066C42.6808 15.1171 42.5943 15.0459 42.487 14.9983C42.3797 14.9507 42.2545 14.9279 42.1206 14.9315C41.9867 14.9352 41.8476 14.9653 41.7137 15.0195C37.4191 16.8197 33.5915 19.6629 30.8228 23.1094C28.054 26.5559 26.4983 30.4138 26.3962 34.0866L21.2721 43.3261L21.2219 43.4218C20.8484 44.2105 20.818 45.0163 21.1369 45.6731C21.4558 46.3299 22.0998 46.7878 22.936 46.9523L22.9931 46.9626L28.2222 47.8081V53.6508C28.2222 54.4506 28.6069 55.1344 29.2918 55.5517C29.9767 55.969 30.9055 56.0857 31.8741 55.8762L41.0039 53.9006V55.4084C41.0039 55.8083 41.1962 56.1502 41.5387 56.3588C41.8811 56.5675 42.3455 56.6259 42.8298 56.5211L59.2109 52.9764C59.5341 52.9092 59.8529 52.7754 60.1376 52.5874C60.459 52.3732 60.7203 52.0955 60.8875 51.7904C61.0548 51.4854 61.1204 51.167 61.0757 50.8766L59.3776 40.0431Z" fill="#624F82"/>
<path d="M48.6154 36.5244C48.4148 36.3199 48.3077 36.0515 48.3077 35.7533C48.3077 35.3534 48.5001 34.9283 48.8425 34.5714C49.1849 34.2146 49.6494 33.9552 50.1336 33.8504C50.4948 33.7723 50.8478 33.7843 51.1481 33.885C51.4484 33.9857 51.6824 34.1706 51.8206 34.4162C51.9588 34.6618 51.995 34.9571 51.9245 35.2649C51.8541 35.5726 51.6802 35.8789 51.4248 36.145C51.1694 36.4111 50.8441 36.6251 50.4899 36.76C50.1357 36.8948 49.7685 36.9444 49.4349 36.9024C49.1012 36.8605 48.8161 36.729 48.6154 36.5244Z" fill="#624F82"/>
<path d="M48.6154 36.5244C48.4148 36.3199 48.3077 36.0515 48.3077 35.7533C48.3077 35.3534 48.5001 34.9283 48.8425 34.5714C49.1849 34.2146 49.6494 33.9552 50.1336 33.8504C50.4948 33.7723 50.8478 33.7843 51.1481 33.885C51.4484 33.9857 51.6824 34.1706 51.8206 34.4162C51.9588 34.6618 51.995 34.9571 51.9245 35.2649C51.8541 35.5726 51.6802 35.8789 51.4248 36.145C51.1694 36.4111 50.8441 36.6251 50.4899 36.76C50.1357 36.8948 49.7685 36.9444 49.4349 36.9024C49.1012 36.8605 48.8161 36.729 48.6154 36.5244Z" fill="#624F82"/>
</g>
</g>
<mask id="mask1_8_33" style="mask-type:alpha" maskUnits="userSpaceOnUse" x="18" y="11" width="29" height="50">
<rect x="18.7051" y="11.1917" width="27.2951" height="48.8511" fill="#D9D9D9"/>
</mask>
<g mask="url(#mask1_8_33)">
<g filter="url(#filter2_i_8_33)">
<path d="M42.8298 23.4953C42.8298 23.197 42.9369 22.9286 43.1375 22.7241C43.3382 22.5195 43.6234 22.3879 43.957 22.346C44.2907 22.304 44.6578 22.3536 45.012 22.4884C45.3662 22.6233 45.6916 22.8373 45.9469 23.1035C46.2023 23.3696 46.3762 23.6759 46.4466 23.9837C46.5171 24.2915 46.4809 24.5868 46.3427 24.8325C46.2045 25.0781 45.9705 25.263 45.6702 25.3637C45.3699 25.4644 45.0169 25.4765 44.6558 25.3983C44.1715 25.2936 43.7071 25.0342 43.3646 24.6773C43.0222 24.3204 42.8298 23.8952 42.8298 23.4953ZM48.3077 36.7444C48.3077 37.0427 48.4148 37.3574 48.6154 37.6488C48.8161 37.9402 49.1012 38.1952 49.4349 38.3815C49.7685 38.5679 50.1357 38.6772 50.4899 38.6956C50.8441 38.7141 51.1694 38.6409 51.4248 38.4852C51.6802 38.3296 51.8541 38.0985 51.9245 37.8213C51.995 37.544 51.9588 37.233 51.8206 36.9275C51.6824 36.622 51.4484 36.3359 51.1481 36.1052C50.8478 35.8745 50.4948 35.7097 50.1336 35.6316C49.6494 35.5268 49.1849 35.5851 48.8425 35.7938C48.5001 36.0026 48.3077 36.3445 48.3077 36.7444ZM59.3776 45.8258C61.6881 44.7233 63.5335 43.1123 64.7779 41.1116C66.0222 39.1109 66.6337 36.7714 66.5673 34.2659C66.5673 34.1277 66.5604 33.9886 66.5467 33.8486C66.5322 33.6538 66.4296 33.4517 66.2599 33.2837C66.0903 33.1156 65.8663 32.9942 65.6337 32.9442L60.1193 31.751L54.84 35.8394C55.4995 36.8999 55.7448 38.0338 55.5326 39.0406C55.3204 40.0474 54.6644 40.8624 53.6805 41.3414C52.6966 41.8204 51.4483 41.9326 50.156 41.6582C48.8638 41.3839 47.6109 40.7406 46.6188 39.842C45.6268 38.9435 44.9594 37.8476 44.7347 36.748C44.5099 35.6484 44.7423 34.616 45.3908 33.8332C46.0392 33.0503 47.0619 32.5676 48.2782 32.4701C49.4944 32.3727 50.8259 32.667 52.0372 33.3008L57.8597 28.789C58.0323 28.658 58.2474 28.5696 58.4899 28.5299C58.7324 28.4902 58.9965 28.5002 59.2634 28.5592L64.545 29.7021C64.6915 29.7339 64.8359 29.7362 64.966 29.7087C65.096 29.6812 65.208 29.6248 65.2924 29.5442C65.3768 29.4635 65.4311 29.3611 65.4508 29.2454C65.4705 29.1298 65.4549 29.0044 65.4055 28.8798C62.7487 22.1505 55.8078 16.1247 47.5636 13.9788L47.4289 13.9497C47.3062 13.9193 47.1838 13.9095 47.069 13.9209C46.9543 13.9322 46.8496 13.9645 46.7611 14.0157C46.6727 14.067 46.6024 14.1362 46.5544 14.2192C46.5063 14.3022 46.4816 14.3972 46.4817 14.4987V20.0122C47.7 20.6316 48.7268 21.5537 49.3807 22.6157C50.0345 23.6777 50.2733 24.8111 50.0548 25.8156C49.8362 26.8201 49.1745 27.6311 48.1866 28.1052C47.1986 28.5792 45.948 28.6859 44.6558 28.4063C43.3636 28.1267 42.113 27.4788 41.125 26.5771C40.137 25.6755 39.4753 24.5782 39.2568 23.4791C39.0383 22.38 39.277 21.3499 39.9309 20.5709C40.5847 19.7919 41.6115 19.3141 42.8298 19.222V14.1326C42.8302 14.0192 42.7995 13.9006 42.7402 13.7854C42.6808 13.6703 42.5943 13.5616 42.487 13.4676C42.3797 13.3735 42.2545 13.2965 42.1206 13.2422C41.9867 13.1879 41.8476 13.1578 41.7137 13.1541C37.4191 13.0958 33.5915 14.2828 30.8228 16.5314C28.054 18.78 26.4983 21.9651 26.3962 25.5942L21.2721 32.6172L21.2219 32.6911C20.8484 33.3183 20.818 34.111 21.1369 34.9059C21.4558 35.7009 22.0998 36.4375 22.936 36.9639L22.9931 36.9989L28.2222 40.1077V45.9512C28.2222 46.751 28.6069 47.6014 29.2918 48.3152C29.9767 49.029 30.9055 49.5478 31.8741 49.7573L41.0039 51.7329V53.2409C41.0039 53.6408 41.1962 54.066 41.5387 54.4229C41.8811 54.7798 42.3455 55.0392 42.8298 55.144L59.2109 58.6886C59.5341 58.7612 59.8529 58.7654 60.1376 58.7006C60.459 58.6254 60.7203 58.4608 60.8875 58.2281C61.0548 57.9954 61.1204 57.7054 61.0757 57.3957L59.3776 45.8258Z" fill="#624F82"/>
<path d="M48.6154 37.6488C48.4148 37.3574 48.3077 37.0427 48.3077 36.7444C48.3077 36.3445 48.5001 36.0026 48.8425 35.7938C49.1849 35.5851 49.6494 35.5268 50.1336 35.6316C50.4948 35.7097 50.8478 35.8745 51.1481 36.1052C51.4484 36.3359 51.6824 36.622 51.8206 36.9275C51.9588 37.233 51.995 37.544 51.9245 37.8213C51.8541 38.0985 51.6802 38.3296 51.4248 38.4852C51.1694 38.6409 50.8441 38.7141 50.4899 38.6956C50.1357 38.6772 49.7685 38.5679 49.4349 38.3815C49.1012 38.1952 48.8161 37.9402 48.6154 37.6488Z" fill="#624F82"/>
<path d="M48.6154 37.6488C48.4148 37.3574 48.3077 37.0427 48.3077 36.7444C48.3077 36.3445 48.5001 36.0026 48.8425 35.7938C49.1849 35.5851 49.6494 35.5268 50.1336 35.6316C50.4948 35.7097 50.8478 35.8745 51.1481 36.1052C51.4484 36.3359 51.6824 36.622 51.8206 36.9275C51.9588 37.233 51.995 37.544 51.9245 37.8213C51.8541 38.0985 51.6802 38.3296 51.4248 38.4852C51.1694 38.6409 50.8441 38.7141 50.4899 38.6956C50.1357 38.6772 49.7685 38.5679 49.4349 38.3815C49.1012 38.1952 48.8161 37.9402 48.6154 37.6488Z" fill="#624F82"/>
</g>
</g>
<g filter="url(#filter3_df_8_33)">
<path d="M44.5244 12.979V59.4471" stroke="#333333" stroke-width="2"/>
</g>
<defs>
<filter id="filter0_d_8_33" x="4.86475" y="7.36707" width="79.8469" height="60.6085" filterUnits="userSpaceOnUse" color-interpolation-filters="sRGB">
<feFlood flood-opacity="0" result="BackgroundImageFix"/>
<feColorMatrix in="SourceAlpha" type="matrix" values="0 0 0 0 0 0 0 0 0 0 0 0 0 0 0 0 0 0 127 0" result="hardAlpha"/>
<feOffset dy="4"/>
<feGaussianBlur stdDeviation="2"/>
<feComposite in2="hardAlpha" operator="out"/>
<feColorMatrix type="matrix" values="0 0 0 0 0 0 0 0 0 0 0 0 0 0 0 0 0 0 0.25 0"/>
<feBlend mode="normal" in2="BackgroundImageFix" result="effect1_dropShadow_8_33"/>
<feBlend mode="normal" in="SourceGraphic" in2="effect1_dropShadow_8_33" result="shape"/>
</filter>
<filter id="filter1_i_8_33" x="20.918" y="12.9631" width="46.6542" height="45.6088" filterUnits="userSpaceOnUse" color-interpolation-filters="sRGB">
<feFlood flood-opacity="0" result="BackgroundImageFix"/>
<feBlend mode="normal" in="SourceGraphic" in2="BackgroundImageFix" result="shape"/>
<feColorMatrix in="SourceAlpha" type="matrix" values="0 0 0 0 0 0 0 0 0 0 0 0 0 0 0 0 0 0 127 0" result="hardAlpha"/>
<feOffset dx="1" dy="2"/>
<feGaussianBlur stdDeviation="2"/>
<feComposite in2="hardAlpha" operator="arithmetic" k2="-1" k3="1"/>
<feColorMatrix type="matrix" values="0 0 0 0 0 0 0 0 0 0 0 0 0 0 0 0 0 0 0.25 0"/>
<feBlend mode="normal" in2="shape" result="effect1_innerShadow_8_33"/>
</filter>
<filter id="filter2_i_8_33" x="20.918" y="13.152" width="47.6542" height="47.5944" filterUnits="userSpaceOnUse" color-interpolation-filters="sRGB">
<feFlood flood-opacity="0" result="BackgroundImageFix"/>
<feBlend mode="normal" in="SourceGraphic" in2="BackgroundImageFix" result="shape"/>
<feColorMatrix in="SourceAlpha" type="matrix" values="0 0 0 0 0 0 0 0 0 0 0 0 0 0 0 0 0 0 127 0" result="hardAlpha"/>
<feOffset dx="2" dy="2"/>
<feGaussianBlur stdDeviation="2"/>
<feComposite in2="hardAlpha" operator="arithmetic" k2="-1" k3="1"/>
<feColorMatrix type="matrix" values="0 0 0 0 0 0 0 0 0 0 0 0 0 0 0 0 0 0 0.25 0"/>
<feBlend mode="normal" in2="shape" result="effect1_innerShadow_8_33"/>
</filter>
<filter id="filter3_df_8_33" x="27.2244" y="-3.321" width="34.6" height="79.0681" filterUnits="userSpaceOnUse" color-interpolation-filters="sRGB">
<feFlood flood-opacity="0" result="BackgroundImageFix"/>
<feColorMatrix in="SourceAlpha" type="matrix" values="0 0 0 0 0 0 0 0 0 0 0 0 0 0 0 0 0 0 127 0" result="hardAlpha"/>
<feOffset dy="10"/>
<feGaussianBlur stdDeviation="2"/>
<feComposite in2="hardAlpha" operator="out"/>
<feColorMatrix type="matrix" values="0 0 0 0 0.956863 0 0 0 0 0.819608 0 0 0 0 0.607843 0 0 0 1 0"/>
<feBlend mode="normal" in2="BackgroundImageFix" result="effect1_dropShadow_8_33"/>
<feBlend mode="normal" in="SourceGraphic" in2="effect1_dropShadow_8_33" result="shape"/>
<feGaussianBlur stdDeviation="8.15" result="effect2_foregroundBlur_8_33"/>
</filter>
</defs>
</svg>
